<svg width="24" height="24" viewBox="0 0 24 24" fill="none" xmlns="http://www.w3.org/2000/svg">
<path d="M13.8409 10.9L13.1809 13.1H10.159L10.819 10.9H13.8409Z" fill="#004889"/>
<path fill-rule="evenodd" clip-rule="evenodd" d="M4.48868 4.48868C3.19995 5.77741 3.19995 7.85159 3.19995 12C3.19995 16.1483 3.19995 18.2225 4.48868 19.5112C5.77741 20.7999 7.85159 20.7999 12 20.7999C16.1483 20.7999 18.2225 20.7999 19.5112 19.5112C20.7999 18.2225 20.7999 16.1483 20.7999 12C20.7999 7.85159 20.7999 5.77741 19.5112 4.48868C18.2225 3.19995 16.1483 3.19995 12 3.19995C7.85159 3.19995 5.77741 3.19995 4.48868 4.48868ZM11.3096 6.9678C11.6587 7.07254 11.8569 7.44048 11.7521 7.78961L11.215 9.57996H14.2369L14.8878 7.41031C14.9925 7.06118 15.3605 6.86306 15.7096 6.9678C16.0587 7.07254 16.2569 7.44048 16.1521 7.78961L15.615 9.57996H17.28C17.6445 9.57996 17.9399 9.87546 17.9399 10.24C17.9399 10.6045 17.6445 10.9 17.28 10.9H15.219L14.559 13.1H16.4C16.7645 13.1 17.0599 13.3955 17.0599 13.76C17.0599 14.1245 16.7645 14.42 16.4 14.42H14.163L13.5121 16.5896C13.4074 16.9387 13.0394 17.1369 12.6903 17.0321C12.3412 16.9274 12.143 16.5594 12.2478 16.2103L12.7849 14.42H9.76301L9.11212 16.5896C9.00738 16.9387 8.63944 17.1369 8.2903 17.0321C7.94117 16.9274 7.74305 16.5594 7.84779 16.2103L8.38489 14.42H6.71995C6.35544 14.42 6.05995 14.1245 6.05995 13.76C6.05995 13.3955 6.35544 13.1 6.71995 13.1H8.78089L9.44089 10.9H7.59995C7.23544 10.9 6.93995 10.6045 6.93995 10.24C6.93995 9.87546 7.23544 9.57996 7.59995 9.57996H9.83689L10.4878 7.41031C10.5925 7.06118 10.9605 6.86306 11.3096 6.9678Z" fill="#004889"/>
</svg>
