<svg width="24" height="24" viewBox="0 0 24 24" fill="none" xmlns="http://www.w3.org/2000/svg">
<path fill-rule="evenodd" clip-rule="evenodd" d="M9.9201 4H14.0801C18.0022 4 19.9632 4 21.1817 5.17157C22.4001 6.34315 22.4001 8.22876 22.4001 12C22.4001 15.7712 22.4001 17.6569 21.1817 18.8284C19.9632 20 18.0022 20 14.0801 20H9.9201C5.99801 20 4.03697 20 2.81853 18.8284C1.6001 17.6569 1.6001 15.7712 1.6001 12C1.6001 8.22876 1.6001 6.34315 2.81853 5.17157C4.03697 4 5.99801 4 9.9201 4ZM13.3001 9C13.3001 8.58579 13.6493 8.25 14.0801 8.25H19.2801C19.7109 8.25 20.0601 8.58579 20.0601 9C20.0601 9.41421 19.7109 9.75 19.2801 9.75H14.0801C13.6493 9.75 13.3001 9.41421 13.3001 9ZM14.3401 12C14.3401 11.5858 14.6893 11.25 15.1201 11.25H19.2801C19.7109 11.25 20.0601 11.5858 20.0601 12C20.0601 12.4142 19.7109 12.75 19.2801 12.75H15.1201C14.6893 12.75 14.3401 12.4142 14.3401 12ZM15.3801 15C15.3801 14.5858 15.7293 14.25 16.1601 14.25H19.2801C19.7109 14.25 20.0601 14.5858 20.0601 15C20.0601 15.4142 19.7109 15.75 19.2801 15.75H16.1601C15.7293 15.75 15.3801 15.4142 15.3801 15ZM10.9601 9C10.9601 10.1046 10.0288 11 8.8801 11C7.73135 11 6.8001 10.1046 6.8001 9C6.8001 7.89543 7.73135 7 8.8801 7C10.0288 7 10.9601 7.89543 10.9601 9ZM8.8801 17C13.0401 17 13.0401 16.1046 13.0401 15C13.0401 13.8954 11.1776 13 8.8801 13C6.58259 13 4.7201 13.8954 4.7201 15C4.7201 16.1046 4.7201 17 8.8801 17Z" fill="#004889"/>
</svg>
