<svg width="25" height="24" viewBox="0 0 25 24" fill="none" xmlns="http://www.w3.org/2000/svg">
<path fill-rule="evenodd" clip-rule="evenodd" d="M7.53046 3.89317C9.13384 2.82183 11.0189 2.25 12.9473 2.25C15.5316 2.25496 18.0087 3.28378 19.8361 5.11118C21.6635 6.93859 22.6923 9.41566 22.6973 12C22.6973 13.9284 22.1254 15.8134 21.0541 17.4168C19.9828 19.0202 18.46 20.2699 16.6784 21.0078C14.8969 21.7458 12.9365 21.9389 11.0451 21.5627C9.15382 21.1865 7.41654 20.2579 6.05298 18.8943C4.68942 17.5307 3.76082 15.7934 3.38461 13.9021C3.00841 12.0108 3.20149 10.0504 3.93944 8.26884C4.6774 6.48726 5.92708 4.96452 7.53046 3.89317ZM18.6973 13C18.6973 13.1989 18.6182 13.3897 18.4776 13.5303C18.3369 13.671 18.1462 13.75 17.9473 13.75H12.6973C12.4984 13.75 12.3076 13.671 12.1669 13.5303C12.0263 13.3897 11.9473 13.1989 11.9473 13V7.75C11.9473 7.55109 12.0263 7.36032 12.1669 7.21967C12.3076 7.07902 12.4984 7 12.6973 7C12.8962 7 13.0869 7.07902 13.2276 7.21967C13.3682 7.36032 13.4473 7.55109 13.4473 7.75V12.25H17.9473C18.1462 12.25 18.3369 12.329 18.4776 12.4697C18.6182 12.6103 18.6973 12.8011 18.6973 13Z" fill="#004884"/>
</svg>
