<svg width="26" height="26" viewBox="0 0 26 26" fill="none" xmlns="http://www.w3.org/2000/svg">
<path fill-rule="evenodd" clip-rule="evenodd" d="M22.3928 12.9889C22.3928 13.5595 22.5812 14.1156 22.9311 14.578L23.6533 15.5268C23.7408 15.6421 23.7985 15.7756 23.8218 15.9164C23.845 16.0571 23.8331 16.2012 23.787 16.3367C23.7409 16.4722 23.662 16.5954 23.5566 16.6962C23.4512 16.7969 23.3224 16.8725 23.1806 16.9166L22.0189 17.278C21.4492 17.4544 20.9527 17.799 20.6009 18.2623C20.2491 18.7256 20.0601 19.2836 20.0612 19.8561V21.0308C20.0612 21.1734 20.0259 21.314 19.9582 21.441C19.8904 21.5681 19.7922 21.678 19.6715 21.7618C19.5509 21.8456 19.4111 21.901 19.2638 21.9233C19.1165 21.9456 18.9657 21.9342 18.8239 21.8902L17.6555 21.5287C17.086 21.3506 16.4721 21.35 15.9023 21.527C15.3324 21.704 14.8361 22.0495 14.485 22.5137L13.7647 23.4607C13.6771 23.5761 13.5621 23.6699 13.4291 23.7347C13.2962 23.7994 13.1492 23.8332 13 23.8332C12.8508 23.8332 12.7038 23.7994 12.5709 23.7347C12.438 23.6699 12.323 23.5761 12.2353 23.4607L11.515 22.5137C11.1641 22.0493 10.6678 21.7036 10.0979 21.5266C9.52799 21.3495 8.91395 21.3503 8.34452 21.5287L7.17616 21.8902C7.03429 21.9342 6.88352 21.9456 6.73619 21.9233C6.58886 21.901 6.44914 21.8456 6.32846 21.7618C6.20778 21.678 6.10956 21.5681 6.04183 21.441C5.97411 21.314 5.9388 21.1734 5.93879 21.0308V19.8561C5.9391 19.2842 5.74978 18.727 5.39804 18.2644C5.0463 17.8019 4.55024 17.4578 3.98112 17.2816L2.81937 16.9202C2.67763 16.8761 2.5488 16.8005 2.44342 16.6998C2.33803 16.599 2.25907 16.4758 2.21298 16.3403C2.1669 16.2048 2.15499 16.0608 2.17824 15.92C2.20148 15.7792 2.25922 15.6457 2.34674 15.5304L3.06893 14.577C3.41883 14.1147 3.6072 13.5586 3.6072 12.988C3.6072 12.4174 3.41883 11.8613 3.06893 11.399L2.34674 10.4465C2.25922 10.3312 2.20148 10.1977 2.17824 10.0569C2.15499 9.91615 2.1669 9.77213 2.21298 9.63662C2.25907 9.5011 2.33803 9.37792 2.44342 9.27714C2.5488 9.17636 2.67763 9.10084 2.81937 9.05673L3.98112 8.69528C4.55024 8.51911 5.0463 8.17504 5.39804 7.71247C5.74978 7.24991 5.9391 6.69268 5.93879 6.12081V4.94609C5.93904 4.80378 5.97445 4.66353 6.04214 4.53678C6.10982 4.41003 6.20787 4.30035 6.32829 4.21668C6.44871 4.13301 6.5881 4.07771 6.73511 4.05528C6.88211 4.03286 7.03258 4.04394 7.17426 4.08763L8.35113 4.44909C8.91945 4.62416 9.53106 4.62328 10.0988 4.44659C10.6666 4.26989 11.1615 3.92638 11.5131 3.46503L12.2362 2.51621C12.3281 2.40704 12.4444 2.31896 12.5766 2.25844C12.7088 2.19792 12.8534 2.1665 13 2.1665C13.1466 2.1665 13.2913 2.19792 13.4234 2.25844C13.5556 2.31896 13.6719 2.40704 13.7638 2.51621L14.4869 3.46322C14.8385 3.92458 15.3334 4.26808 15.9012 4.44478C16.4689 4.62148 17.0806 4.62235 17.6489 4.44728L18.8257 4.08582C18.9676 4.04209 19.1182 4.03103 19.2654 4.05355C19.4125 4.07607 19.552 4.13153 19.6725 4.21541C19.7929 4.29928 19.891 4.4092 19.9585 4.53618C20.0261 4.66317 20.0613 4.80362 20.0612 4.94609V6.12081C20.0609 6.69268 20.2502 7.24991 20.602 7.71247C20.9537 8.17504 21.4498 8.51911 22.0189 8.69528L23.1806 9.05673C23.3224 9.10084 23.4512 9.17636 23.5566 9.27714C23.662 9.37792 23.7409 9.5011 23.787 9.63662C23.8331 9.77213 23.845 9.91615 23.8218 10.0569C23.7985 10.1977 23.7408 10.3312 23.6533 10.4465L22.9311 11.3999C22.5812 11.8622 22.3928 12.4183 22.3928 12.9889ZM12.0547 14.4216L16.1128 10.5423C16.2911 10.3777 16.5299 10.2866 16.7777 10.2886C17.0256 10.2907 17.2626 10.3857 17.4379 10.5533C17.6132 10.7208 17.7126 10.9474 17.7147 11.1844C17.7169 11.4213 17.6216 11.6496 17.4494 11.82L12.723 16.3382C12.5458 16.5076 12.3054 16.6028 12.0547 16.6028C11.8041 16.6028 11.5637 16.5076 11.3864 16.3382L8.55059 13.6273C8.46031 13.5439 8.38829 13.4442 8.33875 13.334C8.28921 13.2237 8.26314 13.1051 8.26204 12.9851C8.26095 12.8652 8.28487 12.7462 8.3324 12.6351C8.37993 12.5241 8.45012 12.4232 8.53887 12.3383C8.62763 12.2535 8.73317 12.1864 8.84934 12.141C8.96551 12.0955 9.08999 12.0726 9.2155 12.0737C9.34101 12.0747 9.46505 12.0997 9.58038 12.147C9.69571 12.1944 9.80001 12.2632 9.88721 12.3495L12.0547 14.4216Z" fill="#b3c2d1"/>
</svg>
