<svg width="25" height="24" viewBox="0 0 25 24" fill="none" xmlns="http://www.w3.org/2000/svg">
<path d="M10.3415 4.64774L11.0555 5.92696C11.6997 7.08139 11.4411 8.59581 10.4264 9.61053C10.4264 9.61053 10.4264 9.61053 10.4264 9.61053C10.4263 9.61065 9.19565 10.8415 11.4272 13.073C13.658 15.3038 14.8888 14.0746 14.8896 14.0738C14.8896 14.0737 14.8896 14.0738 14.8896 14.0737C15.9044 13.059 17.4188 12.8004 18.5732 13.4447L19.8524 14.1586C21.5956 15.1315 21.8015 17.5761 20.2692 19.1084C19.3485 20.0291 18.2206 20.7455 16.9738 20.7927C14.8748 20.8723 11.3103 20.3411 7.73467 16.7655C4.15904 13.1898 3.62783 9.6253 3.7074 7.52635C3.75467 6.27951 4.47108 5.15161 5.39178 4.23091C6.92403 2.69866 9.36869 2.90453 10.3415 4.64774Z" fill="#004889"/>
</svg>
