<svg width="79" height="107" viewBox="0 0 79 107" fill="none" xmlns="http://www.w3.org/2000/svg">
<mask id="mask0_946_7430" style="mask-type:luminance" maskUnits="userSpaceOnUse" x="14" y="0" width="65" height="78">
<path d="M14.5288 0H78.6981V77.1103H14.5288V0Z" fill="white"/>
</mask>
<g mask="url(#mask0_946_7430)">
<path fill-rule="evenodd" clip-rule="evenodd" d="M47.6852 45.5625C47.6637 44.2837 47.2787 43.1753 46.5092 42.2377C45.7392 41.2997 44.7347 40.7668 43.4945 40.6178C42.4252 40.4897 41.5486 40.6819 40.8428 41.1934C40.1376 41.7049 39.4961 42.8128 38.9188 44.5181L47.6852 45.5625ZM27.1587 45.0083C27.2015 46.287 27.5651 47.3527 28.2494 48.1626C28.9118 48.9939 29.7675 49.4627 30.7721 49.5904C31.7772 49.7185 32.6537 49.5054 33.3809 48.9726C34.1076 48.4397 34.7277 47.4381 35.2197 45.9885L27.1587 45.0083ZM52.9023 48.1626L49.9518 47.8001C49.6097 49.3987 49.139 50.6988 48.5832 51.6582C48.0059 52.6171 47.1507 53.4057 46.0176 54.0235C44.8841 54.6418 43.5587 54.9189 42.0192 54.8548L41.7622 51.5087C43.366 51.4447 44.5847 51.1462 45.3976 50.5925C46.5307 49.8039 47.2364 48.7596 47.4715 47.5017L38.2345 46.3724C37.7852 47.6725 37.1442 48.9939 36.2886 50.294C35.6685 51.2743 34.8562 51.9775 33.8939 52.4254C32.9102 52.8729 31.8414 53.0219 30.6655 52.8942C28.5702 52.6385 26.9664 51.6155 25.8328 49.8039C25.0633 48.6101 24.6997 46.9053 24.7212 44.7098L23.3102 44.5395L23.5024 42.5998L24.9134 42.7706C25.2556 40.8949 25.9185 39.4667 26.8593 38.4437C28.0781 37.1436 29.6176 36.4831 31.5207 36.4191L31.6487 39.8292C30.4727 39.8719 29.5319 40.1704 28.8481 40.7032C28.1637 41.2356 27.6717 42.0242 27.3723 43.0685L35.8398 44.1129C36.3742 42.5148 36.7807 41.4705 37.0372 40.959C37.5287 39.9996 38.106 39.2323 38.7475 38.6568C39.389 38.0817 40.1162 37.6765 40.9499 37.4207C41.7837 37.1863 42.6607 37.1009 43.5802 37.229C45.6112 37.4848 47.2364 38.401 48.4552 39.9996C49.6739 41.5981 50.2083 43.5592 50.0798 45.8396L53.0522 46.2016L52.9023 48.1626ZM53.1374 73.8447C53.1588 57.6472 54.0354 41.4064 60.2791 23.4395C60.7921 22.0753 61.3479 20.7112 61.9466 19.3262C66.0092 20.2851 70.1361 20.9883 74.3696 21.2654C65.3249 36.3764 60.557 50.1659 57.5422 63.508C60.4499 52.5317 64.5554 41.257 71.2906 29.1941C73.6853 29.6202 76.1228 29.9186 78.5817 30.0676C71.4829 41.7685 66.9287 52.6812 63.8068 63.1882C61.3693 67.6854 57.6493 71.394 53.1374 73.8447ZM15.2705 -0.0476074C31.3707 4.19383 47.1722 11.6319 63.5932 12.6549C53.373 35.1831 52.218 54.7699 52.2394 74.314C48.7117 76.0615 44.7347 77.0205 40.5435 77.0205C34.3646 77.0205 28.6553 74.9104 24.1653 71.3513C23.0108 59.6718 21.6207 48.0345 20.787 36.3123C20.1027 26.7215 19.7605 16.9604 20.3592 7.32687C25.4697 8.84001 46.9371 15.5535 57.5208 16.2145C44.3068 14.3175 31.8628 9.15982 19.0976 5.36581C18.4989 14.9993 18.8411 24.7396 19.5254 34.3517C20.3806 46.3938 21.8349 58.3717 23.0108 70.3924C21.172 68.7511 19.5468 66.8755 18.221 64.7868C16.0191 43.7722 13.2394 20.9883 15.2705 -0.0476074Z" fill="#004884"/>
</g>
<mask id="mask1_946_7430" style="mask-type:luminance" maskUnits="userSpaceOnUse" x="0" y="24" width="79" height="83">
<path d="M0.947266 24.0623H78.9473V106.5H0.947266V24.0623Z" fill="white"/>
</mask>
<g mask="url(#mask1_946_7430)">
<path fill-rule="evenodd" clip-rule="evenodd" d="M13.5601 41.5981C12.3837 44.6885 11.7427 48.0559 11.7427 51.5515C11.7427 67.1099 24.4003 79.7061 39.9876 79.7061C53.6931 79.7061 65.1111 69.9872 67.6986 57.093C69.4303 53.0646 73.3431 42.9623 76.4007 37.7833C81.6821 51.6369 78.7316 67.8985 67.5486 79.0665L40.009 106.518L12.4693 79.0665C-2.79717 63.8492 -2.69009 39.2537 12.4693 24.1641C11.9349 30.6859 13.4744 39.1683 13.5601 41.5981Z" fill="#004884"/>
</g>
<path fill-rule="evenodd" clip-rule="evenodd" d="M40.0091 97.6303L55.2114 82.4766C50.6148 84.7147 45.4614 85.9935 40.0091 85.9935C34.5569 85.9935 29.3826 84.7361 24.8069 82.4766L40.0091 97.6303Z" fill="#004884"/>
</svg>
