<svg width="24" height="24" viewBox="0 0 24 24" fill="none" xmlns="http://www.w3.org/2000/svg">
<path d="M21.3001 22.0001C21.1201 22.0001 20.9401 21.9301 20.8101 21.8001L18.9501 19.9401C18.6801 19.6701 18.6801 19.2301 18.9501 18.9501C19.2201 18.6801 19.6601 18.6801 19.9401 18.9501L21.8001 20.8101C22.0701 21.0801 22.0701 21.5201 21.8001 21.8001C21.6601 21.9301 21.4801 22.0001 21.3001 22.0001Z" fill="#129CEC"/>
<path d="M2.75 11.5C2.75 6.67421 6.67421 2.75 11.5 2.75C16.3258 2.75 20.25 6.67421 20.25 11.5C20.25 16.3258 16.3258 20.25 11.5 20.25C6.67421 20.25 2.75 16.3258 2.75 11.5Z" stroke="#129CEC" stroke-width="1.5"/>
</svg>